<svg id="Layer_5" enable-background="new 0 0 64 64" height="512" viewBox="0 0 64 64" width="512" xmlns="http://www.w3.org/2000/svg"><path d="m12 52c5.52 0 10 4.48 10 10h-20c0-2.76 1.12-5.26 2.93-7.07s4.31-2.93 7.07-2.93z" fill="#ff826e"/><path d="m62 62h-20c0-2.76 1.12-5.26 2.93-7.07s4.31-2.93 7.07-2.93c5.52 0 10 4.48 10 10z" fill="#ff826e"/><path d="m32 52c5.52 0 10 4.48 10 10h-20c0-2.76 1.12-5.26 2.93-7.07s4.31-2.93 7.07-2.93z" fill="#fcd770"/><path d="m16 33v3c0 1.1-.9 2-2 2h-10c-1.1 0-2-.9-2-2v-10c0-1.1.9-2 2-2h3c0-1.1.9-2 2-2 .55 0 1.05.22 1.41.59.37.36.59.86.59 1.41h3c1.1 0 2 .9 2 2v3c-.55 0-1.05.22-1.41.59-.37.36-.59.86-.59 1.41s.22 1.05.59 1.41c.36.37.86.59 1.41.59z" fill="#b4dd7f"/><path d="m62 26v10c0 1.1-.9 2-2 2h-10c-1.1 0-2-.9-2-2v-3c.55 0 1.05-.22 1.41-.59.37-.36.59-.86.59-1.41s-.22-1.05-.59-1.41c-.36-.37-.86-.59-1.41-.59v-3c0-1.1.9-2 2-2h3c0-.55.22-1.05.59-1.41.36-.37.86-.59 1.41-.59 1.1 0 2 .9 2 2h3c1.1 0 2 .9 2 2z" fill="#b4dd7f"/><g fill="#f0d0b4"><circle cx="12" cy="47" r="5"/><circle cx="52" cy="47" r="5"/><circle cx="32" cy="47" r="5"/></g><path d="m25 36h14c0 3.31-2.69 6-6 6h-1-1c-3.31 0-6-2.69-6-6z" fill="#aab2bd"/><path d="m40 32c1.1 0 2 .9 2 2 0 .55-.22 1.05-.59 1.41-.36.37-.86.59-1.41.59h-1-14-1c-1.1 0-2-.9-2-2 0-.55.22-1.05.59-1.41.36-.37.86-.59 1.41-.59z" fill="#ccd1d9"/><path d="m40 28c1.1 0 2 .9 2 2 0 .55-.22 1.05-.59 1.41-.36.37-.86.59-1.41.59h-16c-1.1 0-2-.9-2-2 0-.55.22-1.05.59-1.41.36-.37.86-.59 1.41-.59h1 14z" fill="#ccd1d9"/><path d="m46 15c.63.83 1 1.87 1 3 0 2.76-2.24 5-5 5 0 2.05-1.24 4.23-3 5h-14c-1.5-.66-2.63-2.46-2.92-4.12-.35.08-.71.12-1.08.12-2.76 0-5-2.24-5-5 0-1.64.79-3.09 2-4-.63-.83-1-1.87-1-3s.37-2.17 1-3h.01c.9-1.21 2.36-2 3.99-2 0-2.76 2.24-5 5-5s5 2.24 5 5c0-2.76 2.24-5 5-5 2.46 0 4.51 1.78 4.92 4.12.35-.08.71-.12 1.08-.12 2.05 0 3.81 1.24 4.58 3h.01c.26.61.41 1.29.41 2 0 1.64-.79 3.09-2 4z" fill="#ffeaa7"/><path d="m34 21h-2c0 2.206 1.794 4 4 4v-2c-1.103 0-2-.897-2-2z"/><path d="m22 11h-2c0 2.206 1.794 4 4 4v-2c-1.103 0-2-.897-2-2z"/><path d="m33 17c-1.103 0-2-.897-2-2h-2c0 2.206 1.794 4 4 4z"/><path d="m29 5c-2.206 0-4 1.794-4 4h2c0-1.103.897-2 2-2z"/><path d="m35 10v-2c-2.206 0-4 1.794-4 4h2c0-1.103.897-2 2-2z"/><path d="m36 20h2c0-1.103.897-2 2-2v-2c-2.206 0-4 1.794-4 4z"/><path d="m48 32h-1v4c0 1.654 1.346 3 3 3h10c1.654 0 3-1.346 3-3v-10c0-1.654-1.346-3-3-3h-2.171c-.301-.85-.978-1.522-1.829-1.824v-8.176c0-2.757-2.243-5-5-5h-2.812c-1.039-1.79-2.973-3-5.188-3-.116 0-.23.011-.344.017-.827-2.373-3.068-4.017-5.656-4.017-2.084 0-3.924 1.068-5 2.687-1.076-1.619-2.916-2.687-5-2.687-2.993 0-5.481 2.203-5.928 5.072-1.395.217-2.625.923-3.528 1.928h-4.544c-2.757 0-5 2.243-5 5v8.176c-.85.302-1.527.974-1.829 1.824h-2.171c-1.654 0-3 1.346-3 3v10c0 1.654 1.346 3 3 3h10c1.654 0 3-1.346 3-3v-4h-1c-.551 0-1-.449-1-1s.449-1 1-1h1v-4c0-1.654-1.346-3-3-3h-2.171c-.301-.85-.978-1.522-1.829-1.824v-8.176c0-1.654 1.346-3 3-3h3.354c-.223.627-.354 1.298-.354 2 0 1.019.257 1.978.707 2.819-1.09 1.113-1.707 2.59-1.707 4.181 0 3.309 2.691 6 6 6 .114 0 .224-.011.336-.017.267.818.695 1.652 1.281 2.371-.956.502-1.617 1.493-1.617 2.646 0 .771.301 1.468.78 2-.48.532-.78 1.229-.78 2 0 1.654 1.346 3 3 3h.08c.348 2.414 1.926 4.432 4.082 5.393-1.32 1.102-2.162 2.757-2.162 4.607 0 1.888.879 3.573 2.246 4.674-2.774 1.012-5.026 3.103-6.246 5.771-1.22-2.667-3.472-4.759-6.246-5.771 1.367-1.101 2.246-2.786 2.246-4.674 0-3.309-2.691-6-6-6s-6 2.691-6 6c0 1.888.879 3.573 2.246 4.674-4.219 1.539-7.246 5.58-7.246 10.326v1h20 2 18 2 20v-1c0-4.746-3.027-8.787-7.246-10.326 1.367-1.101 2.246-2.786 2.246-4.674 0-3.309-2.691-6-6-6s-6 2.691-6 6c0 1.888.879 3.573 2.246 4.674-2.774 1.012-5.026 3.103-6.246 5.771-1.22-2.667-3.472-4.759-6.246-5.771 1.367-1.101 2.246-2.786 2.246-4.674 0-1.85-.842-3.505-2.162-4.607 2.156-.961 3.734-2.979 4.082-5.393h.08c1.654 0 3-1.346 3-3 0-.771-.301-1.468-.78-2 .48-.532.78-1.229.78-2 0-1.147-.654-2.134-1.603-2.638.792-.951 1.351-2.16 1.535-3.434 2.868-.449 5.068-2.937 5.068-5.928 0-1.019-.257-1.978-.707-2.819 1.09-1.113 1.707-2.59 1.707-4.181 0-.341-.035-.674-.09-1h2.09c1.654 0 3 1.346 3 3v8.176c-.85.302-1.527.973-1.829 1.824h-2.171c-1.654 0-3 1.346-3 3v4h1c.551 0 1 .449 1 1s-.449 1-1 1zm-34-7c.551 0 1 .449 1 1v2.171c-1.164.413-2 1.525-2 2.829s.836 2.416 2 2.829v2.171c0 .552-.449 1-1 1h-10c-.551 0-1-.448-1-1v-10c0-.551.449-1 1-1h4v-1c0-.551.449-1 1-1s1 .449 1 1v1zm-6 22c0-2.206 1.794-4 4-4s4 1.794 4 4-1.794 4-4 4-4-1.794-4-4zm-4.945 14c.499-4.494 4.32-8 8.945-8s8.446 3.506 8.945 8zm44.945-14c0-2.206 1.794-4 4-4s4 1.794 4 4-1.794 4-4 4-4-1.794-4-4zm4 6c4.625 0 8.446 3.506 8.945 8h-17.89c.499-4.494 4.32-8 8.945-8zm-12-24c.551 0 1 .449 1 1s-.449 1-1 1h-16c-.551 0-1-.449-1-1s.449-1 1-1zm.945 32h-17.89c.499-4.494 4.32-8 8.945-8s8.446 3.506 8.945 8zm-8.945-10c-2.206 0-4-1.794-4-4s1.794-4 4-4 4 1.794 4 4-1.794 4-4 4zm1-10h-2c-2.414 0-4.434-1.721-4.899-4h11.798c-.465 2.279-2.485 4-4.899 4zm7-6h-16c-.551 0-1-.448-1-1s.449-1 1-1h16c.551 0 1 .448 1 1s-.449 1-1 1zm2-13h-1v1c0 1.636-.979 3.347-2.251 4h-13.5c-.822-.432-1.56-1.376-1.953-2.458 2.172-.904 3.704-3.046 3.704-5.542h-2c0 2.206-1.794 4-4 4s-4-1.794-4-4c0-.967.341-1.87.951-2.585 1.068.981 2.488 1.585 4.049 1.585v-2c-2.206 0-4-1.794-4-4s1.794-4 4-4h1v-1c0-2.206 1.794-4 4-4s4 1.794 4 4h2c0-2.206 1.794-4 4-4 1.646 0 3.078 1 3.685 2.465-2.162.908-3.685 3.047-3.685 5.535h2c0-2.206 1.794-4 4-4s4 1.794 4 4c0 .967-.341 1.87-.951 2.585-1.068-.981-2.488-1.585-4.049-1.585v2c2.206 0 4 1.794 4 4s-1.794 4-4 4zm7 11.829c1.164-.413 2-1.525 2-2.829s-.836-2.416-2-2.829v-2.171c0-.551.449-1 1-1h4v-1c0-.551.449-1 1-1s1 .449 1 1v1h4c.551 0 1 .449 1 1v10c0 .552-.449 1-1 1h-10c-.551 0-1-.448-1-1z"/></svg>